<svg width="49" height="48" viewBox="0 0 49 48" fill="none" xmlns="http://www.w3.org/2000/svg">
<path d="M38.4646 33.2607C38.6719 33.2712 38.8649 33.2816 39.0441 33.2916C40.2591 33.3599 41.3456 34.0249 41.8928 35.1118C42.6071 36.5303 43.5912 38.7633 44.3155 41.4929C44.7548 43.1485 43.5404 44.6828 41.8289 44.7526C38.9627 44.8695 33.7885 44.9999 24.9646 44.9999C16.1407 44.9999 10.9665 44.8695 8.10021 44.7526C6.38875 44.6828 5.17434 43.1485 5.61363 41.4929C6.3379 38.7633 7.32205 36.5303 8.0363 35.1118C8.58359 34.0249 9.67 33.3599 10.885 33.2916C11.0643 33.2816 11.2573 33.2712 11.4645 33.2607" stroke="black" stroke-width="3" stroke-linecap="round" stroke-linejoin="round"/>
<path d="M39.9646 18.0698C39.9646 28.7 29.2166 36.3308 25.9166 38.4232C25.3307 38.7947 24.5985 38.7947 24.0126 38.4232C20.7126 36.3308 9.9646 28.7 9.9646 18.0698C9.9646 9.74696 16.6803 3 24.9646 3C33.2489 3 39.9646 9.74696 39.9646 18.0698Z" stroke="black" stroke-width="3" stroke-linecap="round" stroke-linejoin="round"/>
<path d="M30.9646 18C30.9646 21.3137 28.2783 24 24.9646 24C21.6509 24 18.9646 21.3137 18.9646 18C18.9646 14.6863 21.6509 12 24.9646 12C28.2783 12 30.9646 14.6863 30.9646 18Z" stroke="black" stroke-width="3" stroke-linecap="round" stroke-linejoin="round"/>
</svg>
