<svg width="60" height="60" viewBox="0 0 60 60" fill="none" xmlns="http://www.w3.org/2000/svg">
<path d="M30 33.75C27.2805 33.75 24.6221 32.9436 22.3609 31.4327C20.0997 29.9218 18.3374 27.7744 17.2967 25.2619C16.256 22.7494 15.9837 19.9848 16.5142 17.3175C17.0448 14.6503 18.3543 12.2003 20.2773 10.2773C22.2003 8.35432 24.6503 7.04476 27.3175 6.51421C29.9848 5.98366 32.7494 6.25596 35.2619 7.29666C37.7744 8.33737 39.9218 10.0997 41.4327 12.3609C42.9436 14.6221 43.75 17.2805 43.75 20C43.7434 23.6447 42.2926 27.1382 39.7154 29.7154C37.1382 32.2926 33.6447 33.7434 30 33.75ZM30 8.75001C27.775 8.75001 25.5999 9.40981 23.7498 10.646C21.8998 11.8821 20.4578 13.6391 19.6064 15.6948C18.7549 17.7505 18.5321 20.0125 18.9662 22.1948C19.4003 24.3771 20.4717 26.3816 22.0451 27.955C23.6184 29.5283 25.623 30.5998 27.8052 31.0338C29.9875 31.4679 32.2495 31.2451 34.3052 30.3937C36.3609 29.5422 38.1179 28.1002 39.354 26.2502C40.5902 24.4001 41.25 22.225 41.25 20C41.2434 17.0183 40.056 14.1607 37.9477 12.0523C35.8393 9.94399 32.9817 8.75661 30 8.75001Z" fill="black"/>
<path d="M52.5 53.75C52.1685 53.75 51.8505 53.6183 51.6161 53.3839C51.3817 53.1495 51.25 52.8315 51.25 52.5C51.25 47.5272 49.2746 42.7581 45.7583 39.2417C42.2419 35.7254 37.4728 33.75 32.5 33.75H27.5C22.5272 33.75 17.7581 35.7254 14.2417 39.2417C10.7254 42.7581 8.75 47.5272 8.75 52.5C8.75 52.8315 8.6183 53.1495 8.38388 53.3839C8.14946 53.6183 7.83152 53.75 7.5 53.75C7.16848 53.75 6.85054 53.6183 6.61612 53.3839C6.3817 53.1495 6.25 52.8315 6.25 52.5C6.25662 46.8662 8.49757 41.465 12.4813 37.4813C16.465 33.4976 21.8662 31.2566 27.5 31.25H32.5C38.1338 31.2566 43.535 33.4976 47.5187 37.4813C51.5024 41.465 53.7434 46.8662 53.75 52.5C53.75 52.8315 53.6183 53.1495 53.3839 53.3839C53.1495 53.6183 52.8315 53.75 52.5 53.75Z" fill="black"/>
<path d="M30 53.75C29.8361 53.752 29.6735 53.7197 29.5228 53.6551C29.3721 53.5905 29.2366 53.4951 29.125 53.375L26.625 50.875C26.4871 50.7398 26.3816 50.5751 26.3166 50.3932C26.2517 50.2113 26.2289 50.017 26.25 49.825L28.75 32.325C28.808 32.0363 28.9643 31.7765 29.1921 31.5899C29.42 31.4032 29.7055 31.3013 30 31.3013C30.2945 31.3013 30.58 31.4032 30.8079 31.5899C31.0357 31.7765 31.192 32.0363 31.25 32.325L33.75 49.825C33.7711 50.017 33.7483 50.2113 33.6834 50.3932C33.6184 50.5751 33.513 50.7398 33.375 50.875L30.875 53.375C30.7634 53.4951 30.6279 53.5905 30.4772 53.6551C30.3265 53.7197 30.1639 53.752 30 53.75ZM28.825 49.55L30 50.725L31.175 49.55L30 41.35L28.825 49.55Z" fill="black"/>
</svg>
