<svg width="24" height="24" viewBox="0 0 24 24" fill="none" xmlns="http://www.w3.org/2000/svg">
<g clip-path="url(#clip0_229_90)">
<path d="M20.083 15.2L21.285 15.921C21.3592 15.9654 21.4205 16.0283 21.4632 16.1034C21.5058 16.1786 21.5282 16.2636 21.5282 16.35C21.5282 16.4364 21.5058 16.5214 21.4632 16.5966C21.4205 16.6718 21.3592 16.7346 21.285 16.779L12.515 22.041C12.3595 22.1345 12.1814 22.1838 12 22.1838C11.8186 22.1838 11.6405 22.1345 11.485 22.041L2.715 16.779C2.64085 16.7346 2.57947 16.6718 2.53685 16.5966C2.49423 16.5214 2.47182 16.4364 2.47182 16.35C2.47182 16.2636 2.49423 16.1786 2.53685 16.1034C2.57947 16.0283 2.64085 15.9654 2.715 15.921L3.917 15.2L12 20.05L20.083 15.2ZM20.083 10.5L21.285 11.221C21.3592 11.2654 21.4205 11.3283 21.4632 11.4034C21.5058 11.4786 21.5282 11.5636 21.5282 11.65C21.5282 11.7364 21.5058 11.8214 21.4632 11.8966C21.4205 11.9718 21.3592 12.0346 21.285 12.079L12 17.65L2.715 12.079C2.64085 12.0346 2.57947 11.9718 2.53685 11.8966C2.49423 11.8214 2.47182 11.7364 2.47182 11.65C2.47182 11.5636 2.49423 11.4786 2.53685 11.4034C2.57947 11.3283 2.64085 11.2654 2.715 11.221L3.917 10.5L12 15.35L20.083 10.5ZM12.514 1.30901L21.285 6.57101C21.3592 6.6154 21.4205 6.67826 21.4632 6.75344C21.5058 6.82863 21.5282 6.91358 21.5282 7.00001C21.5282 7.08643 21.5058 7.17139 21.4632 7.24657C21.4205 7.32176 21.3592 7.38462 21.285 7.42901L12 13L2.715 7.42901C2.64085 7.38462 2.57947 7.32176 2.53685 7.24657C2.49423 7.17139 2.47182 7.08643 2.47182 7.00001C2.47182 6.91358 2.49423 6.82863 2.53685 6.75344C2.57947 6.67826 2.64085 6.6154 2.715 6.57101L11.485 1.30901C11.6405 1.21557 11.8186 1.1662 12 1.1662C12.1814 1.1662 12.3595 1.21557 12.515 1.30901H12.514ZM12 3.33201L5.887 7.00001L12 10.668L18.113 7.00001L12 3.33201Z" fill="black"/>
</g>
<defs>
<clipPath id="clip0_229_90">
<rect width="24" height="24" fill="white"/>
</clipPath>
</defs>
</svg>
